<?xml version="1.0" encoding="UTF-8" standalone="no"?>
<svg
   xmlns:dc="http://purl.org/dc/elements/1.1/"
   xmlns:cc="http://creativecommons.org/ns#"
   xmlns:rdf="http://www.w3.org/1999/02/22-rdf-syntax-ns#"
   xmlns:svg="http://www.w3.org/2000/svg"
   xmlns="http://www.w3.org/2000/svg"
   xmlns:sodipodi="http://sodipodi.sourceforge.net/DTD/sodipodi-0.dtd"
   xmlns:inkscape="http://www.inkscape.org/namespaces/inkscape"
   width="26"
   height="208"
   id="svg2"
   version="1.1"
   inkscape:version="0.91 r13725"
   sodipodi:docname="sprites.svg">
  <metadata
     id="metadata32">
    <rdf:RDF>
      <cc:Work
         rdf:about="">
        <dc:format>image/svg+xml</dc:format>
        <dc:type
           rdf:resource="http://purl.org/dc/dcmitype/StillImage" />
      </cc:Work>
    </rdf:RDF>
  </metadata>
  <defs
     id="defs30" />
  <sodipodi:namedview
     pagecolor="#ffffff"
     bordercolor="#666666"
     borderopacity="1"
     objecttolerance="10"
     gridtolerance="10"
     guidetolerance="10"
     inkscape:pageopacity="0"
     inkscape:pageshadow="2"
     inkscape:window-width="828"
     inkscape:window-height="560"
     id="namedview28"
     showgrid="false"
     inkscape:zoom="6.4183538"
     inkscape:cx="19.653993"
     inkscape:cy="77.023602"
     inkscape:window-x="440"
     inkscape:window-y="396"
     inkscape:window-maximized="0"
     inkscape:current-layer="svg2" />
  <circle
     cy="169"
     cx="13"
     r="7"
     fill="none"
     stroke="#000"
     stroke-width="2"
     id="circle8" />
  <circle
     cy="195"
     cx="13"
     r="7"
     fill="none"
     stroke="#000"
     stroke-width="2"
     id="circle10" />
  <circle
     cx="13"
     cy="195"
     r="2.5"
     id="circle12" />
  <path
     d="m5 83v6h2v-4h4v-2zm10 0v2h4v4h2v-6zm-5 5v6h6v-6zm-5 5v6h6v-2h-4v-4zm14 0v4h-4v2h6v-6z"
     id="path14" />
  <g
     id="g4157"
     transform="translate(-2.5,-0.19978)">
    <path
       id="path4150"
       d="m 12.5,107.30078 a 7.5000001,7.5000001 0 0 0 -7.5,7.5 7.5000001,7.5000001 0 0 0 7.5,7.5 7.5000001,7.5000001 0 0 0 7.5,-7.5 7.5000001,7.5000001 0 0 0 -7.5,-7.5 z"
       inkscape:connector-curvature="0"
       style="fill:#00529f;fill-opacity:1" />
    <g
       id="g4153">
      <path
         d="m 11.427734,110.51367 2.144532,0 0,2.14258 -2.144532,0 0,-2.14258 z"
         id="path4148"
         style="fill:#ffffff"
         inkscape:connector-curvature="0" />
      <path
         d="m 11.427734,113.72852 2.144532,0 0,5.35742 -2.144532,0 0,-5.35742 z"
         id="path16"
         style="fill:#ffffff"
         inkscape:connector-curvature="0" />
    </g>
  </g>
  <path
     d="m5 57v6h2v-4h4v-2zm10 0v2h4v4h2v-6zm-10 10v6h6v-2h-4v-4zm14 0v4h-4v2h6v-6z"
     id="path18" />
  <path
     d="m17 38v2h-8v-2z"
     id="path20" />
  <path
     d="m12 9v3h-3v2h3v3h2v-3h3v-2h-3v-3z"
     id="path22" />
  <g
     id="g4148"
     transform="translate(-3,0)">
    <circle
       id="circle6"
       r="7"
       cx="13"
       cy="141"
       style="fill:#00529f;fill-opacity:1" />
    <path
       id="path24"
       d="m 13,136.54546 -3.8977273,3.89772 2.7840913,0 0,5.01137 2.227272,0 0,-5.01137 2.784091,0 z"
       inkscape:connector-curvature="0"
       style="fill:#ffffff;fill-opacity:1" />
  </g>
  <path
     d="m10.428 173.33v-5.77l5-2.89v5.77zm1-1.73 3-1.73-3.001-1.74z"
     id="path26" />
</svg>
